<svg width="171" height="99" viewBox="0 0 171 99" fill="none" xmlns="http://www.w3.org/2000/svg">
<g clip-path="url(#clip0_1_6)">
<path d="M62.4882 1.4637L3.4437 42.8071C-0.211734 45.3667 -1.10011 50.4049 1.45945 54.0603C4.01901 57.7158 9.05726 58.6042 12.7127 56.0446L71.7572 14.7012C75.4126 12.1416 76.301 7.10339 73.7414 3.44795C71.1819 -0.207481 66.1436 -1.09586 62.4882 1.4637Z"/>
<path d="M162.78 41.35H8.08C3.61754 41.35 0 44.9675 0 49.43C0 53.8925 3.61754 57.51 8.08 57.51H162.78C167.242 57.51 170.86 53.8925 170.86 49.43C170.86 44.9675 167.242 41.35 162.78 41.35Z"/>
<path d="M12.7113 42.8072C9.05586 40.2476 4.01761 41.136 1.45804 44.7914C-1.10152 48.4468 -0.213137 53.4851 3.4423 56.0446L62.4868 97.388C66.1422 99.9476 71.1805 99.0592 73.74 95.4038C76.2996 91.7484 75.4112 86.7101 71.7558 84.1505L12.7113 42.8072Z" />
</g>
<defs>
<clipPath id="clip0_1_6">
<rect width="170.86" height="98.85" fill="white"/>
</clipPath>
</defs>
</svg>
