<?xml version="1.0" encoding="utf-8"?>
<!-- Generator: Adobe Illustrator 28.0.0, SVG Export Plug-In . SVG Version: 6.00 Build 0)  -->
<svg version="1.1" id="레이어_1" xmlns="http://www.w3.org/2000/svg" xmlns:xlink="http://www.w3.org/1999/xlink" x="0px"
	 y="0px" viewBox="0 0 95.5 160" style="enable-background:new 0 0 95.5 160;" xml:space="preserve">
<style type="text/css">
	.st0{fill:#FFFFFF;}
</style>
<path class="st0" d="M47.9,1.5c2,0,4,0.8,5.5,2.3l38.7,38.7c3,3,3,8,0,11c-1.5,1.5-3.5,2.3-5.5,2.3s-4-0.8-5.5-2.3L55.8,28.2V152
	c0,4.4-3.6,8-8,8c-2.2,0-4.2-0.9-5.7-2.3c-1.4-1.5-2.3-3.5-2.3-5.7V28L14.4,53.4c-3,3-8,3-11,0c-1.5-1.5-2.3-3.5-2.3-5.5
	s0.8-4,2.3-5.5L42,3.7c1.6-1.6,3.7-2.3,5.7-2.3C47.8,1.5,47.8,1.5,47.9,1.5z"/>
</svg>
