<svg width="111" height="74" viewBox="0 0 111 74" fill="none" xmlns="http://www.w3.org/2000/svg">
<g clip-path="url(#clip0_8_94)">
<path d="M31 21.13H0V73.13H31V21.13Z" fill="white"/>
<path d="M12.0906 45.77H10.8906V45.23H13.9506V45.77H12.7406V49.3H12.0906V45.77Z" fill="black"/>
<path d="M13.9805 48.4901C13.9805 47.8401 14.5405 47.5001 15.8105 47.3601C15.8105 47.0101 15.6805 46.7001 15.2305 46.7001C14.9105 46.7001 14.6105 46.8401 14.3405 47.0101L14.1005 46.5801C14.4205 46.3801 14.8505 46.1801 15.3405 46.1801C16.1005 46.1801 16.4505 46.6601 16.4505 47.4701V49.3001H15.9305L15.8805 48.9501H15.8605C15.5805 49.1901 15.2505 49.3701 14.8905 49.3701C14.3605 49.3701 13.9905 49.0301 13.9905 48.4901H13.9805ZM15.8105 48.5101V47.7601C14.9005 47.8601 14.6005 48.1001 14.6005 48.4401C14.6005 48.7401 14.8105 48.8601 15.0805 48.8601C15.3505 48.8601 15.5605 48.7301 15.8205 48.5101H15.8105Z" fill="black"/>
<path d="M17.9394 48.98H17.9194L17.8594 49.29H17.3594V44.89H17.9994V46.05L17.9794 46.57C18.2394 46.34 18.5694 46.17 18.8894 46.17C19.6594 46.17 20.0994 46.78 20.0994 47.72C20.0994 48.76 19.4694 49.36 18.7794 49.36C18.4994 49.36 18.1894 49.22 17.9294 48.97L17.9394 48.98ZM19.4394 47.74C19.4394 47.11 19.2294 46.71 18.7194 46.71C18.4794 46.71 18.2494 46.83 17.9994 47.08V48.56C18.2294 48.76 18.4694 48.84 18.6594 48.84C19.1094 48.84 19.4394 48.45 19.4394 47.74Z" fill="black"/>
<path d="M111 21.13H36V73.13H111V21.13Z" fill="white"/>
<path d="M67.6707 45.77H66.4707V45.23H69.5307V45.77H68.3207V49.3H67.6707V45.77Z" fill="black"/>
<path d="M69.5605 48.4901C69.5605 47.8401 70.1205 47.5001 71.3905 47.3601C71.3905 47.0101 71.2605 46.7001 70.8105 46.7001C70.4905 46.7001 70.1905 46.8401 69.9205 47.0101L69.6805 46.5801C70.0005 46.3801 70.4305 46.1801 70.9205 46.1801C71.6805 46.1801 72.0305 46.6601 72.0305 47.4701V49.3001H71.5106L71.4605 48.9501H71.4406C71.1606 49.1901 70.8306 49.3701 70.4706 49.3701C69.9406 49.3701 69.5705 49.0301 69.5705 48.4901H69.5605ZM71.3905 48.5101V47.7601C70.4805 47.8601 70.1805 48.1001 70.1805 48.4401C70.1805 48.7401 70.3906 48.8601 70.6606 48.8601C70.9306 48.8601 71.1406 48.7301 71.4006 48.5101H71.3905Z" fill="black"/>
<path d="M73.5194 48.98H73.4995L73.4395 49.29H72.9395V44.89H73.5795V46.05L73.5594 46.57C73.8194 46.34 74.1495 46.17 74.4695 46.17C75.2395 46.17 75.6795 46.78 75.6795 47.72C75.6795 48.76 75.0495 49.36 74.3595 49.36C74.0795 49.36 73.7695 49.22 73.5095 48.97L73.5194 48.98ZM75.0194 47.74C75.0194 47.11 74.8095 46.71 74.2995 46.71C74.0595 46.71 73.8295 46.83 73.5795 47.08V48.56C73.8095 48.76 74.0494 48.84 74.2394 48.84C74.6894 48.84 75.0194 48.45 75.0194 47.74Z" fill="black"/>
<path d="M76.4395 48.58V44.89H77.0795V48.61C77.0795 48.78 77.1495 48.84 77.2295 48.84C77.2595 48.84 77.2794 48.84 77.3394 48.83L77.4194 49.31C77.3394 49.34 77.2395 49.36 77.0695 49.36C76.6095 49.36 76.4395 49.07 76.4395 48.58Z" fill="black"/>
<path d="M77.8809 47.7801C77.8809 46.8001 78.5609 46.1801 79.2809 46.1801C80.0909 46.1801 80.5309 46.7601 80.5309 47.6201C80.5309 47.7501 80.5109 47.8701 80.5009 47.9501H78.5109C78.5609 48.5301 78.9309 48.8801 79.4609 48.8801C79.7309 48.8801 79.9709 48.8001 80.1909 48.6501L80.4109 49.0501C80.1309 49.2401 79.7709 49.3701 79.3709 49.3701C78.5409 49.3701 77.8809 48.7801 77.8809 47.7801ZM79.9709 47.5001C79.9709 46.9801 79.7309 46.6801 79.2809 46.6801C78.9009 46.6801 78.5609 46.9701 78.4909 47.5001H79.9609H79.9709Z" fill="black"/>
<path d="M111 0H0V16H111V0Z" fill="white"/>
<path d="M44.6409 9.64003L45.0209 9.20003C45.3109 9.49003 45.7209 9.68003 46.1109 9.68003C46.6109 9.68003 46.8809 9.45003 46.8809 9.11003C46.8809 8.74003 46.6009 8.62003 46.2209 8.46003L45.6509 8.22003C45.2509 8.05003 44.8109 7.75003 44.8109 7.15003C44.8109 6.51003 45.3809 6.03003 46.1609 6.03003C46.6409 6.03003 47.0909 6.23003 47.4009 6.54003L47.0609 6.95003C46.8009 6.72003 46.5209 6.59003 46.1609 6.59003C45.7409 6.59003 45.4709 6.79003 45.4709 7.11003C45.4709 7.46003 45.8009 7.60003 46.1309 7.73003L46.6909 7.97003C47.1709 8.17003 47.5309 8.47003 47.5309 9.07003C47.5309 9.72003 46.9809 10.25 46.0909 10.25C45.5309 10.25 45.0009 10.03 44.6309 9.65003L44.6409 9.64003Z" fill="black"/>
<path d="M48.0391 8.65005C48.0391 7.67005 48.7291 7.05005 49.4391 7.05005C50.2491 7.05005 50.6891 7.63005 50.6891 8.49005C50.6891 8.62005 50.6691 8.74005 50.6591 8.82005H48.6691C48.7191 9.40005 49.0891 9.75005 49.6191 9.75005C49.8891 9.75005 50.1291 9.67005 50.3491 9.52005L50.5691 9.92005C50.2891 10.11 49.9291 10.24 49.5291 10.24C48.6991 10.24 48.0391 9.65005 48.0391 8.65005ZM50.1291 8.37005C50.1291 7.85005 49.8891 7.55005 49.4391 7.55005C49.0591 7.55005 48.7191 7.84005 48.6491 8.37005H50.1191H50.1291Z" fill="black"/>
<path d="M51.4004 9.45001V5.76001H52.0404V9.48001C52.0404 9.65001 52.1104 9.71001 52.1904 9.71001C52.2204 9.71001 52.2404 9.71001 52.3004 9.70001L52.3804 10.18C52.3004 10.21 52.2004 10.23 52.0304 10.23C51.5704 10.23 51.4004 9.94001 51.4004 9.45001Z" fill="black"/>
<path d="M52.8496 8.65005C52.8496 7.67005 53.5296 7.05005 54.2496 7.05005C55.0596 7.05005 55.4996 7.63005 55.4996 8.49005C55.4996 8.62005 55.4796 8.74005 55.4696 8.82005H53.4796C53.5296 9.40005 53.8996 9.75005 54.4296 9.75005C54.6996 9.75005 54.9396 9.67005 55.1596 9.52005L55.3796 9.92005C55.0996 10.11 54.7396 10.24 54.3396 10.24C53.5096 10.24 52.8496 9.65005 52.8496 8.65005ZM54.9396 8.37005C54.9396 7.85005 54.6996 7.55005 54.2496 7.55005C53.8696 7.55005 53.5296 7.84005 53.4596 8.37005H54.9296H54.9396Z" fill="black"/>
<path d="M55.9905 8.65005C55.9905 7.64005 56.7005 7.05005 57.5105 7.05005C57.9005 7.05005 58.1805 7.20005 58.4105 7.40005L58.0905 7.81005C57.9205 7.66005 57.7505 7.57005 57.5405 7.57005C57.0205 7.57005 56.6505 8.00005 56.6505 8.64005C56.6505 9.28005 57.0105 9.71005 57.5105 9.71005C57.7705 9.71005 57.9905 9.59005 58.1805 9.43005L58.4505 9.85005C58.1705 10.1 57.8005 10.23 57.4505 10.23C56.6205 10.23 55.9805 9.65005 55.9805 8.64005L55.9905 8.65005Z" fill="black"/>
<path d="M59.1297 9.17005V7.64005H58.6797V7.17005L59.1597 7.14005L59.2297 6.30005H59.7597V7.14005H60.5597V7.65005H59.7597V9.19005C59.7597 9.55005 59.8897 9.74005 60.2097 9.74005C60.3197 9.74005 60.4497 9.71005 60.5397 9.67005L60.6597 10.14C60.4897 10.2 60.2797 10.25 60.0597 10.25C59.3697 10.25 59.1297 9.82005 59.1297 9.18005V9.17005Z" fill="black"/>
<path d="M60.9199 8.65005C60.9199 7.64005 61.6099 7.05005 62.3599 7.05005C63.1099 7.05005 63.7999 7.64005 63.7999 8.65005C63.7999 9.66005 63.1099 10.24 62.3599 10.24C61.6099 10.24 60.9199 9.66005 60.9199 8.65005ZM63.1499 8.65005C63.1499 8.01005 62.8499 7.58005 62.3599 7.58005C61.8699 7.58005 61.5799 8.01005 61.5799 8.65005C61.5799 9.29005 61.8799 9.72005 62.3599 9.72005C62.8399 9.72005 63.1499 9.29005 63.1499 8.65005Z" fill="black"/>
<path d="M64.5605 7.13006H65.0806L65.1305 7.68006H65.1506C65.3706 7.29006 65.6905 7.06006 66.0205 7.06006C66.1705 7.06006 66.2706 7.08006 66.3706 7.13006L66.2505 7.68006C66.1405 7.65006 66.0706 7.63006 65.9406 7.63006C65.6906 7.63006 65.3905 7.80006 65.2005 8.28006V10.1701H64.5605V7.13006Z" fill="black"/>
</g>
<defs>
<clipPath id="clip0_8_94">
<rect width="111" height="73.13" fill="white"/>
</clipPath>
</defs>
</svg>
