<svg width="111" height="73" viewBox="0 0 111 73" fill="none" xmlns="http://www.w3.org/2000/svg">
<g clip-path="url(#clip0_8_115)">
<path d="M31 26H0V73H31V26Z" fill="white"/>
<path d="M111 0H36V73H111V0Z" fill="white"/>
<path d="M31 0H0V21H31V0Z" fill="white"/>
<path d="M5.67039 11.98L6.01039 11.58C6.28039 11.84 6.64039 12.01 7.00039 12.01C7.45039 12.01 7.70039 11.8 7.70039 11.49C7.70039 11.15 7.45039 11.05 7.10039 10.9L6.59039 10.68C6.23039 10.53 5.83039 10.25 5.83039 9.71996C5.83039 9.13996 6.34039 8.70996 7.05039 8.70996C7.48039 8.70996 7.89039 8.88996 8.17039 9.17996L7.86039 9.54996C7.63039 9.34996 7.37039 9.21996 7.04039 9.21996C6.66039 9.21996 6.41039 9.39996 6.41039 9.68996C6.41039 10.01 6.71039 10.13 7.01039 10.25L7.52039 10.46C7.96039 10.65 8.28039 10.92 8.28039 11.45C8.28039 12.04 7.79039 12.52 6.97039 12.52C6.46039 12.52 5.99039 12.32 5.65039 11.98H5.67039Z" fill="black"/>
<path d="M8.75 11.08C8.75 10.19 9.37 9.64001 10.02 9.64001C10.76 9.64001 11.15 10.16 11.15 10.94C11.15 11.05 11.13 11.16 11.12 11.23H9.32C9.37 11.75 9.7 12.07 10.18 12.07C10.43 12.07 10.64 12 10.84 11.87L11.04 12.23C10.78 12.4 10.46 12.52 10.1 12.52C9.35 12.52 8.75 11.99 8.75 11.08ZM10.65 10.83C10.65 10.36 10.43 10.09 10.03 10.09C9.68 10.09 9.37 10.35 9.32 10.83H10.65Z" fill="black"/>
<path d="M11.7891 11.81V8.46997H12.3691V11.84C12.3691 11.99 12.4391 12.05 12.5091 12.05C12.5391 12.05 12.5591 12.05 12.6091 12.04L12.6891 12.47C12.6191 12.49 12.5191 12.51 12.3791 12.51C11.9591 12.51 11.8091 12.25 11.8091 11.8L11.7891 11.81Z" fill="black"/>
<path d="M13.0996 11.08C13.0996 10.19 13.7196 9.64001 14.3696 9.64001C15.1096 9.64001 15.4996 10.16 15.4996 10.94C15.4996 11.05 15.4796 11.16 15.4696 11.23H13.6696C13.7196 11.75 14.0496 12.07 14.5296 12.07C14.7796 12.07 14.9896 12 15.1896 11.87L15.3896 12.23C15.1296 12.4 14.8096 12.52 14.4496 12.52C13.6996 12.52 13.0996 11.99 13.0996 11.08ZM14.9996 10.83C14.9996 10.36 14.7796 10.09 14.3796 10.09C14.0296 10.09 13.7196 10.35 13.6696 10.83H14.9996Z" fill="black"/>
<path d="M15.9492 11.08C15.9492 10.17 16.5892 9.64001 17.3192 9.64001C17.6692 9.64001 17.9292 9.78001 18.1292 9.95001L17.8392 10.32C17.6892 10.18 17.5292 10.11 17.3492 10.11C16.8792 10.11 16.5492 10.5 16.5492 11.08C16.5492 11.66 16.8692 12.05 17.3292 12.05C17.5592 12.05 17.7692 11.94 17.9392 11.8L18.1792 12.18C17.9192 12.41 17.5992 12.52 17.2792 12.52C16.5292 12.52 15.9492 12 15.9492 11.08Z" fill="black"/>
<path d="M18.7809 11.56V10.17H18.3809V9.73995L18.8109 9.70995L18.8809 8.94995H19.3609V9.70995H20.0809V10.17H19.3609V11.56C19.3609 11.89 19.4809 12.06 19.7609 12.06C19.8609 12.06 19.9809 12.03 20.0609 12L20.1709 12.42C20.0109 12.47 19.8309 12.52 19.6309 12.52C19.0009 12.52 18.7909 12.14 18.7909 11.56H18.7809Z" fill="black"/>
<path d="M20.4102 11.08C20.4102 10.17 21.0302 9.64001 21.7202 9.64001C22.4102 9.64001 23.0302 10.17 23.0302 11.08C23.0302 11.99 22.4102 12.52 21.7202 12.52C21.0302 12.52 20.4102 12 20.4102 11.08ZM22.4302 11.08C22.4302 10.5 22.1602 10.11 21.7202 10.11C21.2802 10.11 21.0102 10.5 21.0102 11.08C21.0102 11.66 21.2802 12.05 21.7202 12.05C22.1602 12.05 22.4302 11.67 22.4302 11.08Z" fill="black"/>
<path d="M23.6992 9.71001H24.1692L24.2192 10.2H24.2392C24.4392 9.85001 24.7292 9.64001 25.0292 9.64001C25.1692 9.64001 25.2592 9.66001 25.3392 9.70001L25.2292 10.2C25.1292 10.17 25.0592 10.16 24.9492 10.16C24.7192 10.16 24.4492 10.31 24.2792 10.75V12.46H23.6992V9.71001Z" fill="black"/>
<path d="M11.7898 47.13H10.5898V46.59H13.6498V47.13H12.4398V50.66H11.7898V47.13Z" fill="black"/>
<path d="M13.6797 49.85C13.6797 49.2 14.2397 48.86 15.5097 48.72C15.5097 48.37 15.3797 48.06 14.9297 48.06C14.6097 48.06 14.3097 48.2 14.0397 48.37L13.7997 47.94C14.1197 47.74 14.5497 47.54 15.0397 47.54C15.7997 47.54 16.1497 48.02 16.1497 48.83V50.66H15.6297L15.5797 50.31H15.5597C15.2797 50.55 14.9497 50.73 14.5897 50.73C14.0597 50.73 13.6897 50.39 13.6897 49.85H13.6797ZM15.5097 49.87V49.12C14.5997 49.22 14.2997 49.46 14.2997 49.8C14.2997 50.1 14.5097 50.22 14.7797 50.22C15.0497 50.22 15.2597 50.09 15.5197 49.87H15.5097Z" fill="black"/>
<path d="M17.6405 50.35H17.6205L17.5605 50.66H17.0605V46.26H17.7005V47.42L17.6805 47.94C17.9405 47.71 18.2705 47.54 18.5905 47.54C19.3605 47.54 19.8005 48.15 19.8005 49.09C19.8005 50.13 19.1705 50.73 18.4805 50.73C18.2005 50.73 17.8905 50.59 17.6305 50.34L17.6405 50.35ZM19.1405 49.11C19.1405 48.48 18.9305 48.08 18.4205 48.08C18.1805 48.08 17.9505 48.2 17.7005 48.45V49.93C17.9305 50.13 18.1705 50.21 18.3605 50.21C18.8105 50.21 19.1405 49.82 19.1405 49.11Z" fill="black"/>
<path d="M67.3602 35.13H66.1602V34.59H69.2202V35.13H68.0102V38.66H67.3602V35.13Z" fill="black"/>
<path d="M69.25 37.85C69.25 37.2 69.81 36.86 71.08 36.72C71.08 36.37 70.95 36.06 70.5 36.06C70.18 36.06 69.88 36.2 69.61 36.37L69.37 35.94C69.69 35.74 70.12 35.54 70.61 35.54C71.37 35.54 71.72 36.02 71.72 36.83V38.66H71.2L71.15 38.31H71.13C70.85 38.55 70.52 38.73 70.16 38.73C69.63 38.73 69.26 38.39 69.26 37.85H69.25ZM71.08 37.87V37.12C70.17 37.22 69.87 37.46 69.87 37.8C69.87 38.1 70.08 38.22 70.35 38.22C70.62 38.22 70.83 38.09 71.09 37.87H71.08Z" fill="black"/>
<path d="M73.2109 38.35H73.1909L73.1309 38.66H72.6309V34.26H73.2709V35.42L73.2509 35.94C73.5109 35.71 73.8409 35.54 74.1609 35.54C74.9309 35.54 75.3709 36.15 75.3709 37.09C75.3709 38.13 74.7409 38.73 74.0509 38.73C73.7709 38.73 73.4609 38.59 73.2009 38.34L73.2109 38.35ZM74.7109 37.11C74.7109 36.48 74.5009 36.08 73.9909 36.08C73.7509 36.08 73.5209 36.2 73.2709 36.45V37.93C73.5009 38.13 73.7409 38.21 73.9309 38.21C74.3809 38.21 74.7109 37.82 74.7109 37.11Z" fill="black"/>
<path d="M76.1309 37.95V34.26H76.7709V37.98C76.7709 38.15 76.8409 38.21 76.9209 38.21C76.9509 38.21 76.9709 38.21 77.0309 38.2L77.1109 38.68C77.0309 38.71 76.9309 38.73 76.7609 38.73C76.3009 38.73 76.1309 38.44 76.1309 37.95Z" fill="black"/>
<path d="M77.5801 37.14C77.5801 36.16 78.2601 35.54 78.9801 35.54C79.7901 35.54 80.2301 36.12 80.2301 36.98C80.2301 37.11 80.2101 37.23 80.2001 37.31H78.2101C78.2601 37.89 78.6301 38.24 79.1601 38.24C79.4301 38.24 79.6701 38.16 79.8901 38.01L80.1101 38.41C79.8301 38.6 79.4701 38.73 79.0701 38.73C78.2401 38.73 77.5801 38.14 77.5801 37.14ZM79.6701 36.86C79.6701 36.34 79.4301 36.04 78.9801 36.04C78.6001 36.04 78.2601 36.33 78.1901 36.86H79.6601H79.6701Z" fill="black"/>
</g>
<defs>
<clipPath id="clip0_8_115">
<rect width="111" height="73" fill="white"/>
</clipPath>
</defs>
</svg>
